<svg width="24" height="24" viewBox="0 0 24 24" fill="none" xmlns="http://www.w3.org/2000/svg">
<g clip-path="url(#clip0_182_487)">
<path fill-rule="evenodd" clip-rule="evenodd" d="M12 2.25C6.61522 2.25 2.25 6.61522 2.25 12C2.25 17.3848 6.61522 21.75 12 21.75C17.3848 21.75 21.75 17.3848 21.75 12C21.7443 6.61758 17.3824 2.25568 12 2.25ZM12 20.25C7.44365 20.25 3.75 16.5563 3.75 12C3.75 7.44365 7.44365 3.75 12 3.75C16.5563 3.75 20.25 7.44365 20.25 12C20.2448 16.5542 16.5542 20.2448 12 20.25ZM15.75 13.875C15.75 15.3247 14.5747 16.5 13.125 16.5H12.75V17.25C12.75 17.6642 12.4142 18 12 18C11.5858 18 11.25 17.6642 11.25 17.25V16.5H9.75C9.33579 16.5 9 16.1642 9 15.75C9 15.3358 9.33579 15 9.75 15H13.125C13.7463 15 14.25 14.4963 14.25 13.875C14.25 13.2537 13.7463 12.75 13.125 12.75H10.875C9.42525 12.75 8.25 11.5747 8.25 10.125C8.25 8.67525 9.42525 7.5 10.875 7.5H11.25V6.75C11.25 6.33579 11.5858 6 12 6C12.4142 6 12.75 6.33579 12.75 6.75V7.5H14.25C14.6642 7.5 15 7.83579 15 8.25C15 8.66421 14.6642 9 14.25 9H10.875C10.2537 9 9.75 9.50368 9.75 10.125C9.75 10.7463 10.2537 11.25 10.875 11.25H13.125C14.5747 11.25 15.75 12.4253 15.75 13.875Z" fill="white"/>
</g>
<defs>
<clipPath id="clip0_182_487">
<rect width="24" height="24" fill="white"/>
</clipPath>
</defs>
</svg>
