<svg width="169" height="40" viewBox="0 0 169 40" fill="none" xmlns="http://www.w3.org/2000/svg">
<rect x="31.75" y="19.655" width="15.5" height="8.09494" fill="#122117"/>
<rect x="31.75" y="19.655" width="15.5" height="8.09494" stroke="white" stroke-width="0.5"/>
<rect x="31.75" y="12.25" width="15.5" height="8.09494" fill="#A6F2C4"/>
<rect x="31.75" y="12.25" width="15.5" height="8.09494" stroke="white" stroke-width="0.5"/>
<path d="M64.26 26.5V13.54H72.63V15.574H66.429V18.769H71.55V20.803H66.429V24.466H72.63V26.5H64.26ZM78.6863 26.77C77.7923 26.77 77.0123 26.545 76.3463 26.095C75.6803 25.645 75.1643 25.033 74.7983 24.259C74.4323 23.485 74.2493 22.612 74.2493 21.64C74.2493 20.656 74.4323 19.78 74.7983 19.012C75.1703 18.238 75.6953 17.629 76.3733 17.185C77.0513 16.735 77.8493 16.51 78.7673 16.51C79.6913 16.51 80.4653 16.735 81.0893 17.185C81.7193 17.629 82.1963 18.238 82.5203 19.012C82.8443 19.786 83.0063 20.662 83.0063 21.64C83.0063 22.606 82.8443 23.479 82.5203 24.259C82.1963 25.033 81.7133 25.645 81.0713 26.095C80.4293 26.545 79.6343 26.77 78.6863 26.77ZM79.0193 24.826C79.6013 24.826 80.0693 24.694 80.4233 24.43C80.7833 24.16 81.0443 23.785 81.2063 23.305C81.3743 22.825 81.4583 22.27 81.4583 21.64C81.4583 21.004 81.3743 20.449 81.2063 19.975C81.0443 19.495 80.7893 19.123 80.4413 18.859C80.0933 18.589 79.6433 18.454 79.0913 18.454C78.5093 18.454 78.0293 18.598 77.6513 18.886C77.2733 19.168 76.9943 19.552 76.8143 20.038C76.6343 20.518 76.5443 21.052 76.5443 21.64C76.5443 22.234 76.6313 22.774 76.8053 23.26C76.9853 23.74 77.2583 24.121 77.6243 24.403C77.9903 24.685 78.4553 24.826 79.0193 24.826ZM81.1883 30.82V23.602H81.4583V16.78H83.3753V30.82H81.1883ZM89.5437 26.779C88.8237 26.779 88.2297 26.659 87.7617 26.419C87.2937 26.179 86.9217 25.873 86.6457 25.501C86.3697 25.129 86.1657 24.733 86.0337 24.313C85.9017 23.893 85.8147 23.497 85.7727 23.125C85.7367 22.747 85.7187 22.441 85.7187 22.207V16.78H87.9147V21.46C87.9147 21.76 87.9357 22.099 87.9777 22.477C88.0197 22.849 88.1157 23.209 88.2657 23.557C88.4217 23.899 88.6497 24.181 88.9497 24.403C89.2557 24.625 89.6667 24.736 90.1827 24.736C90.4587 24.736 90.7317 24.691 91.0017 24.601C91.2717 24.511 91.5147 24.358 91.7307 24.142C91.9527 23.92 92.1297 23.617 92.2617 23.233C92.3937 22.849 92.4597 22.363 92.4597 21.775L93.7467 22.324C93.7467 23.152 93.5847 23.902 93.2607 24.574C92.9427 25.246 92.4717 25.783 91.8477 26.185C91.2237 26.581 90.4557 26.779 89.5437 26.779ZM92.7207 26.5V23.485H92.4597V16.78H94.6377V26.5H92.7207ZM97.3463 15.304V13.315H99.5153V15.304H97.3463ZM97.3463 26.5V16.78H99.5153V26.5H97.3463ZM106.882 26.77C105.934 26.77 105.139 26.545 104.497 26.095C103.855 25.645 103.372 25.033 103.048 24.259C102.724 23.479 102.562 22.606 102.562 21.64C102.562 20.662 102.724 19.786 103.048 19.012C103.372 18.238 103.846 17.629 104.47 17.185C105.1 16.735 105.877 16.51 106.801 16.51C107.719 16.51 108.514 16.735 109.186 17.185C109.864 17.629 110.389 18.238 110.761 19.012C111.133 19.78 111.319 20.656 111.319 21.64C111.319 22.612 111.136 23.485 110.77 24.259C110.404 25.033 109.888 25.645 109.222 26.095C108.556 26.545 107.776 26.77 106.882 26.77ZM102.193 30.82V16.78H104.11V23.602H104.38V30.82H102.193ZM106.549 24.826C107.113 24.826 107.578 24.685 107.944 24.403C108.31 24.121 108.58 23.74 108.754 23.26C108.934 22.774 109.024 22.234 109.024 21.64C109.024 21.052 108.934 20.518 108.754 20.038C108.574 19.552 108.295 19.168 107.917 18.886C107.539 18.598 107.059 18.454 106.477 18.454C105.925 18.454 105.475 18.589 105.127 18.859C104.779 19.123 104.521 19.495 104.353 19.975C104.191 20.449 104.11 21.004 104.11 21.64C104.11 22.27 104.191 22.825 104.353 23.305C104.521 23.785 104.782 24.16 105.136 24.43C105.496 24.694 105.967 24.826 106.549 24.826ZM113.483 26.5V13.27H115.652V26.5H113.483ZM119.626 30.82L121.498 25.681L121.534 27.193L117.295 16.78H119.554L122.56 24.484H121.984L124.909 16.78H127.078L121.66 30.82H119.626Z" fill="white"/>
</svg>
