<svg width="24" height="24" viewBox="0 0 24 24" fill="none" xmlns="http://www.w3.org/2000/svg">
<g clip-path="url(#clip0_182_477)">
<path fill-rule="evenodd" clip-rule="evenodd" d="M12 8.25C9.92893 8.25 8.25 9.92893 8.25 12C8.25 14.0711 9.92893 15.75 12 15.75C14.0711 15.75 15.75 14.0711 15.75 12C15.75 9.92893 14.0711 8.25 12 8.25ZM12 14.25C10.7574 14.25 9.75 13.2426 9.75 12C9.75 10.7574 10.7574 9.75 12 9.75C13.2426 9.75 14.25 10.7574 14.25 12C14.25 13.2426 13.2426 14.25 12 14.25ZM22.5 5.25H1.5C1.08579 5.25 0.75 5.58579 0.75 6V18C0.75 18.4142 1.08579 18.75 1.5 18.75H22.5C22.9142 18.75 23.25 18.4142 23.25 18V6C23.25 5.58579 22.9142 5.25 22.5 5.25ZM18.1547 17.25H5.84531C5.33369 15.5197 3.98033 14.1663 2.25 13.6547V10.3453C3.98033 9.83369 5.33369 8.48033 5.84531 6.75H18.1547C18.6663 8.48033 20.0197 9.83369 21.75 10.3453V13.6547C20.0197 14.1663 18.6663 15.5197 18.1547 17.25ZM21.75 8.75344C20.8504 8.36662 20.1334 7.64959 19.7466 6.75H21.75V8.75344ZM4.25344 6.75C3.86662 7.64959 3.14959 8.36662 2.25 8.75344V6.75H4.25344ZM2.25 15.2466C3.14959 15.6334 3.86662 16.3504 4.25344 17.25H2.25V15.2466ZM19.7466 17.25C20.1334 16.3504 20.8504 15.6334 21.75 15.2466V17.25H19.7466Z" fill="white"/>
</g>
<defs>
<clipPath id="clip0_182_477">
<rect width="24" height="24" fill="white"/>
</clipPath>
</defs>
</svg>
